<svg xmlns="http://www.w3.org/2000/svg" viewBox="0 0 1200 750" width="1200" height="750">
  <defs>
    <linearGradient id="g4" x1="0" y1="0" x2="1" y2="1">
      <stop offset="0" stop-color="#D88888"/>
      <stop offset="1" stop-color="#D85898"/>
    </linearGradient>
    <radialGradient id="v4" cx="0.5" cy="0.4" r="0.75">
      <stop offset="0" stop-color="#D88888" stop-opacity="0.35"/>
      <stop offset="1" stop-color="#0B0B0F" stop-opacity="0"/>
    </radialGradient>
  </defs>
  <rect width="1200" height="750" fill="#0B0B0F"/>
  <rect width="1200" height="750" fill="url(#v4)"/>
  <rect x="90" y="110" width="90" height="90" rx="12" fill="url(#g4)" fill-opacity="0.90"/>
  <rect x="90" y="226" width="90" height="90" rx="12" fill="url(#g4)" fill-opacity="0.81"/>
  <rect x="90" y="342" width="90" height="90" rx="12" fill="url(#g4)" fill-opacity="0.72"/>
  <rect x="226" y="110" width="150" height="150" rx="21" fill="url(#g4)" fill-opacity="0.81"/>
  <rect x="226" y="286" width="150" height="150" rx="21" fill="url(#g4)" fill-opacity="0.72"/>
  <rect x="422" y="110" width="60" height="60" rx="8" fill="url(#g4)" fill-opacity="0.72"/>
  <rect x="422" y="196" width="60" height="60" rx="8" fill="url(#g4)" fill-opacity="0.63"/>
  <rect x="422" y="282" width="60" height="60" rx="8" fill="url(#g4)" fill-opacity="0.54"/>
  <rect x="422" y="368" width="60" height="60" rx="8" fill="url(#g4)" fill-opacity="0.45"/>
  <rect x="422" y="454" width="60" height="60" rx="8" fill="url(#g4)" fill-opacity="0.36"/>
  <rect x="528" y="110" width="200" height="200" rx="28" fill="url(#g4)" fill-opacity="0.63"/>
  <rect x="774" y="110" width="120" height="120" rx="17" fill="url(#g4)" fill-opacity="0.54"/>
  <rect x="774" y="256" width="120" height="120" rx="17" fill="url(#g4)" fill-opacity="0.45"/>
  <rect x="774" y="402" width="120" height="120" rx="17" fill="url(#g4)" fill-opacity="0.36"/>
  <rect x="774" y="548" width="120" height="120" rx="17" fill="url(#g4)" fill-opacity="0.27"/>
</svg>