<svg xmlns="http://www.w3.org/2000/svg" viewBox="0 0 1200 750" width="1200" height="750">
  <defs>
    <linearGradient id="g5" x1="0" y1="0" x2="1" y2="1">
      <stop offset="0" stop-color="#E89868"/>
      <stop offset="1" stop-color="#5898D8"/>
    </linearGradient>
    <radialGradient id="v5" cx="0.5" cy="0.4" r="0.75">
      <stop offset="0" stop-color="#E89868" stop-opacity="0.35"/>
      <stop offset="1" stop-color="#0B0B0F" stop-opacity="0"/>
    </radialGradient>
  </defs>
  <rect width="1200" height="750" fill="#0B0B0F"/>
  <rect width="1200" height="750" fill="url(#v5)"/>
  <path d="M0,200 C 300,120 600,300 1200,170" fill="none" stroke="url(#g5)" stroke-width="4" stroke-opacity="0.75"/>
  <path d="M0,242 C 300,162 600,342 1200,212" fill="none" stroke="url(#g5)" stroke-width="4" stroke-opacity="0.68"/>
  <path d="M0,284 C 300,204 600,384 1200,254" fill="none" stroke="url(#g5)" stroke-width="4" stroke-opacity="0.61"/>
  <path d="M0,326 C 300,246 600,426 1200,296" fill="none" stroke="url(#g5)" stroke-width="4" stroke-opacity="0.54"/>
  <path d="M0,368 C 300,288 600,468 1200,338" fill="none" stroke="url(#g5)" stroke-width="4" stroke-opacity="0.47"/>
  <path d="M0,410 C 300,330 600,510 1200,380" fill="none" stroke="url(#g5)" stroke-width="4" stroke-opacity="0.40"/>
  <path d="M0,452 C 300,372 600,552 1200,422" fill="none" stroke="url(#g5)" stroke-width="4" stroke-opacity="0.33"/>
  <path d="M0,494 C 300,414 600,594 1200,464" fill="none" stroke="url(#g5)" stroke-width="4" stroke-opacity="0.26"/>
  <path d="M0,536 C 300,456 600,636 1200,506" fill="none" stroke="url(#g5)" stroke-width="4" stroke-opacity="0.19"/>
</svg>